# xmcd CD database file generated by Grip 3.0.3
# 
# Track frame offsets:
#       150
#       24325
#       35785
#       48079
#       61182
#       72468
#       94432
#       107837
#       119303
#       134338
#       149376
#       175964
# 
# Disc length: 3105 seconds
# 
# Revision: 1
# Processed by: cddbd v1.4PL0 Copyright (c) Steve Scherf et al.
# Submitted via: Grip 3.0.3
# 
DISCID=af0c1f0c
DTITLE=Various Artist - The Blues Live On!
DYEAR=1900
DGENRE=Blues
TTITLE0=Albert King - Match Box Blues
TTITLE1=Big Maceo - Big City Blues
TTITLE2=Big Mama Thornton - Life Goes On
TTITLE3=Percy Mayfield - Please Send Me Someone to Love
TTITLE4=Mecy Dee Walton - My Woman and the Devil
TTITLE5=Etta Jones - Cool Cool Daddy
TTITLE6=Billy Boy Arnold - You're My Girl
TTITLE7=James Cotton - Straighten Up
TTITLE8=Willie Dixon - Sittin' and Cryin' the Blues
TTITLE9=Brownie McGhee - One Thing for Sure
TTITLE10=Ida Cox - Lawdy Lawdy Blues
TTITLE11=Thad Jones - Empty Street
EXTD=
EXTT0=
EXTT1=
EXTT2=
EXTT3=
EXTT4=
EXTT5=
EXTT6=
EXTT7=
EXTT8=
EXTT9=
EXTT10=
EXTT11=
PLAYORDER=
